<svg width="90" height="80" fill="none" xmlns="http://www.w3.org/2000/svg"><path d="M23.21 78.644C21.304 78.237-1.597 74.568.09 47.516 1.774 20.464 3.89 12.328 12.794 9.352c8.904-2.977 30.547-17.061 47.531-3.67C77.31 19.076 95.635 31.087 88.363 52.47 81.09 73.852 79.9 80.984 60.925 79.893c-18.975-1.091-28.651.687-37.715-1.25Z" fill="#F6F6F6"/><path d="m53.214 51.513-.1.096.089.107L68.694 70.34a1.9 1.9 0 0 1-.896 3.027 1.9 1.9 0 0 1-2.023-.599L50.199 54.042l-.086-.103-.112.074-.965.638a20.21 20.21 0 0 1-11.86 2.556c-11.16-1.025-19.407-10.938-18.382-22.098 1.024-11.16 10.937-19.407 22.098-18.382 11.16 1.024 19.406 10.938 18.382 22.098a20.232 20.232 0 0 1-6.06 12.688ZM37.553 53.1c8.896.817 16.798-5.756 17.614-14.652.817-8.897-5.756-16.798-14.652-17.615-8.897-.817-16.799 5.756-17.615 14.653-.817 8.896 5.756 16.798 14.653 17.614Z" fill="#F6F6F6" stroke="#646464" stroke-width=".3"/><path d="M28.402 54.44c.328.203.661.396 1 .58a20.522 20.522 0 0 1-8.104-7.709 20.297 20.297 0 0 1-2.787-9.435c-.073-1.762.083-3.49.555-5.186.511-1.838 1.235-3.622 2.052-5.351a.38.38 0 0 1 .07-.025c-.847 1.81-1.6 3.69-2.097 5.636-.485 1.898-.56 3.867-.387 5.805.571 6.407 4.235 12.3 9.698 15.685ZM21.348 27.3l-.002-.001h.002ZM56.476 61.906l-5.967-7.174h.002a.432.432 0 0 1 .111-.027h.002l2.051 2.466 8.7 10.458 3.451 4.15.275.33.551.662c.256.305.564.536.895.68a2.034 2.034 0 0 1-.986-.624c-.168-.193-.33-.39-.492-.588-.082-.1-.165-.202-.25-.303l-8.343-10.03Zm-6.046-7.133.001-.001h-.001Zm.17-.097Zm18.398 17.925c-.031.043-.064.084-.097.124.023-.035.045-.072.066-.11a.164.164 0 0 1 .026-.012l.005-.002ZM45.693 22.364a15.966 15.966 0 0 1 9.394 15.967.397.397 0 0 1-.104.032l-.018.003a16.187 16.187 0 0 0-9.272-16.002Z" fill="#646464" stroke="#646464" stroke-width=".3"/><path d="m54.301 49.977-.1.097.09.107 15.49 18.622a1.899 1.899 0 0 1-2.918 2.428L51.286 52.507l-.086-.104-.112.074-.964.638a20.21 20.21 0 0 1-11.86 2.556c-11.16-1.024-19.407-10.938-18.383-22.098 1.025-11.16 10.938-19.406 22.098-18.382C53.14 16.215 61.386 26.13 60.362 37.29a20.233 20.233 0 0 1-6.06 12.688Zm-15.66 1.588c8.896.817 16.798-5.757 17.614-14.653.817-8.896-5.756-16.798-14.653-17.615-8.896-.816-16.798 5.757-17.614 14.653-.817 8.896 5.756 16.798 14.653 17.615Z" fill="#fff" stroke="#646464" stroke-width=".3"/><path d="M60.68 36.242a20.64 20.64 0 0 1-6.01 13.598l-.017-.021a21.14 21.14 0 0 0 1.865-2.178 20.475 20.475 0 0 0 .492-23.655c-4.5-6.654-12.703-10.172-20.628-8.7-7.771 1.443-14.17 7.494-16.066 15.164-1.915 7.75.94 16.095 7.199 21.05 4.851 3.84 11.255 5.208 17.146 3.88a20.64 20.64 0 0 1-24.87-24.01 20.641 20.641 0 0 1 40.888 4.872Zm-6.326 13.875.093-.091-.013.092-.011.081-.069-.082Zm-6.832 4.388a19.235 19.235 0 0 0 3.346-1.704c-.363.24-.722.472-1.103.676-.73.389-1.48.732-2.243 1.028Zm22.387 14.123c.686.839.68 1.958-.029 2.737a.34.34 0 0 0-.035-.02 2.123 2.123 0 0 0-.036-2.65 6.123 6.123 0 0 0-.138-.166l-.064-.077-1.164-1.399-8.48-10.194-5.4-6.492.086-.084 1.998 2.403 8.975 10.788 3.51 4.22.261.313c.173.207.346.413.516.62ZM51.313 52.867l.08-.053.02-.014 1.942 2.335 8.836 10.621 3.612 4.343.892 1.072c.362.435.832.744 1.341.846.08.016.16.026.24.032a2.194 2.194 0 0 1-1.671-.799l-.001-.001c-.213-.252-.423-.505-.633-.76l-.317-.382-8.577-10.311-5.764-6.929Z" fill="#646464" stroke="#646464" stroke-width=".3"/><path d="M56.07 34.35v-.001c-.458-6.546-5.026-12.335-11.303-14.268a15.56 15.56 0 0 0-2.298-.52c1.5.208 2.98.628 4.393 1.272 6.06 2.76 9.802 9.155 9.332 15.77a.502.502 0 0 0-.13.008 16.42 16.42 0 0 0 .006-2.262ZM32.508 21.33a15.892 15.892 0 0 0-5.274 4.579c-3.975 5.416-4.09 12.963-.322 18.514 2.976 4.384 7.984 6.998 13.166 7.054-6.018-.015-11.697-3.47-14.414-8.927-3.028-6.083-1.759-13.626 3.046-18.418a16.012 16.012 0 0 1 3.798-2.802ZM55.733 39.4c-.905 3.498-2.995 6.527-5.775 8.677 3.323-2.635 5.567-6.555 6.054-10.883a.494.494 0 0 0 .128-.006c-.085.745-.22 1.485-.407 2.212Z" fill="#646464" stroke="#646464" stroke-width=".3"/><path opacity=".5" d="M51.365 24.186c6.21 6.21 6.21 16.279 0 22.489-6.21 6.21-16.278 6.21-22.488 0-6.21-6.21-6.21-16.278 0-22.488 6.21-6.21 16.279-6.21 22.488 0Z" fill="#fff" stroke="#646464" stroke-width=".3"/><path d="M41.241 19.432a14.46 14.46 0 0 1 .275.02l.003.003-.011.125m-.267-.148a.254.254 0 0 1 .01-.024m-.01.024a.21.21 0 0 0-.003.125c.09.007.18.014.27.023m-.267-.148a16.034 16.034 0 0 0-2.282.022 16.54 16.54 0 0 0-9.117 3.69c2.532-2.14 5.71-3.507 9.113-3.745a16.302 16.302 0 0 1 2.296.009m0 0a19.13 19.13 0 0 1 .244.02l-.006-.004s.01.004.033.006l.134.014m-.405-.036.504.064m-.099-.028-.002.019a.198.198 0 0 0-.13.067l.004-.008a.088.088 0 0 0-.006-.06l-.002-.005-.001-.001-.011.124m.148-.136Zm-.148.136c.105.01.211.02.316.033a.427.427 0 0 0 .056-.056.32.32 0 0 0 .043-.067m-.168-.018.168.018m-.168-.018-.072-.007.005.003s-.008-.003-.03-.005m.097.01-.096-.01m.264.027a.302.302 0 0 0 .007-.015c.363.044.724.101 1.08.17m-1.087-.155c.364.04.727.091 1.088.155m0 0c.372.066.742.144 1.11.235 6.449 1.617 11.368 7.274 12.037 13.894.474 4.692-1.21 9.29-4.345 12.62 3.689-4.01 5.192-9.79 3.729-15.154-1.616-5.92-6.575-10.443-12.531-11.595Zm-1.356-.182a15.37 15.37 0 0 0-.135-.012l.135.012Zm0 0h.004m-.004 0h.004m.11-.007a18.282 18.282 0 0 0-.106-.012.09.09 0 0 1-.006-.008l.112.02ZM34.613 39.455a6.18 6.18 0 0 1 .567-.513c-.18.154-.349.317-.504.49 0 0-.003.003-.012.007a.17.17 0 0 1-.05.016Zm10.899.284a.082.082 0 0 1-.021-.003 6.172 6.172 0 0 0-1.043-.965 7.497 7.497 0 0 0-4.225-1.544 7.161 7.161 0 0 1 1.972.308c1.273.388 2.573 1.15 3.43 2.175a.241.241 0 0 1-.114.028ZM35.023 32.802a.653.653 0 1 1-1.089.721.653.653 0 0 1 1.09-.72ZM45.544 32.57a.654.654 0 1 1-.07 1.306.654.654 0 0 1 .07-1.306Z" fill="#646464" stroke="#646464" stroke-width=".3"/><path d="M31.641 38.35c.644-.006 1.158-.707 1.148-1.565-.009-.858-.538-1.548-1.181-1.541-.644.007-1.158.708-1.149 1.566.01.858.539 1.548 1.182 1.54ZM48.343 38.17c.644-.007 1.158-.708 1.149-1.566-.01-.858-.539-1.548-1.182-1.54-.644.006-1.158.707-1.149 1.565.01.858.539 1.548 1.182 1.541Z" fill="#A73AFD" fill-opacity=".2"/></svg>