<svg width="48" height="48" viewBox="0 0 48 48" fill="none" xmlns="http://www.w3.org/2000/svg">
<rect width="48" height="48" rx="24" fill="#F4E7FF" style="fill:#F4E7FF;fill:color(display-p3 0.9569 0.9059 1.0000);fill-opacity:1;"/>
<path d="M19 25.5C19 26.6046 18.1046 27.5 17 27.5C15.8954 27.5 15 26.6046 15 25.5V21.5C15 20.3954 15.8954 19.5 17 19.5L17.0176 19.5001C17.2739 15.8674 20.3021 13 24 13C27.6979 13 30.7261 15.8674 30.9824 19.5001L31 19.5C32.1046 19.5 33 20.3954 33 21.5V25.5C33 26.6046 32.1046 27.5 31 27.5C30.9983 28.1139 30.9876 28.5504 30.9261 28.9386C30.5195 31.506 28.506 33.5195 25.9386 33.9261C25.5594 33.9862 25.1339 33.9975 24.542 33.9996L23.5 34C22.3954 34 21.5 33.1046 21.5 32C21.5 30.8954 22.3954 30 23.5 30H24.5C25.5083 30 26.3423 30.7461 26.48 31.7164C27.7711 31.2025 28.7267 30.0402 28.9508 28.6257C28.9969 28.3344 29 27.9672 29 27V20C29 17.2386 26.7614 15 24 15C21.2386 15 19 17.2386 19 20V25.5Z" fill="#A73AFD" style="fill:#A73AFD;fill:color(display-p3 0.6549 0.2275 0.9922);fill-opacity:1;"/>
</svg>
