<svg width="20" height="20" fill="none" xmlns="http://www.w3.org/2000/svg">
    <path fill-rule="evenodd" clip-rule="evenodd"
          d="M13.378 3.084c-1.21.365-2.195 1.24-2.569 1.921a.927.927 0 0 1-1.614.015c-.379-.66-1.354-1.536-2.553-1.908-1.135-.352-2.435-.249-3.645.953-1.341 1.377-1.141 3.62.185 5.616l.004.006.004.006c.521.816 1.806 2.21 3.22 3.631a130.695 130.695 0 0 0 3.586 3.455c.768-.722 2.203-2.088 3.59-3.487 1.414-1.428 2.706-2.821 3.231-3.611 1.318-1.985 1.538-4.158.175-5.627-1.17-1.194-2.468-1.315-3.614-.97Zm-.48-1.596c1.657-.499 3.628-.296 5.293 1.408l.007.007.006.007c2.135 2.29 1.518 5.41.001 7.693-.631.95-2.047 2.46-3.435 3.862a151.175 151.175 0 0 1-3.641 3.536c-.635.597-1.62.6-2.258.008a132.494 132.494 0 0 1-3.644-3.51c-1.385-1.393-2.801-2.909-3.437-3.902-1.507-2.273-2.14-5.492.018-7.701l.009-.008C3.52 1.192 5.488 1.008 7.136 1.52a6.705 6.705 0 0 1 2.853 1.801 6.609 6.609 0 0 1 2.909-1.833Z"
          fill="#A9A8B0"/>
</svg>